<svg width="494" height="252" viewBox="0 0 494 252" fill="none" xmlns="http://www.w3.org/2000/svg">
<path d="M473.454 177.021C479.639 173.423 481.736 165.492 478.137 159.307L419.496 58.5151C415.898 52.33 407.967 50.2331 401.782 53.8316C395.597 57.4301 393.5 65.3613 397.098 71.5463L449.223 161.139L359.631 213.264C353.446 216.862 351.349 224.794 354.947 230.979C358.546 237.164 366.477 239.261 372.662 235.662L473.454 177.021ZM55.1913 70.4219C62.1089 72.2526 69.2008 68.1288 71.0314 61.2112C72.8621 54.2936 68.7383 47.2018 61.8207 45.3711L55.1913 70.4219ZM35.7606 38.4746C28.843 36.6439 21.7512 40.7677 19.9205 47.6853C18.0899 54.6029 22.2136 61.6947 29.1312 63.5254L35.7606 38.4746ZM45.836 67.8925L463.626 178.349L470.25 153.296L52.4594 42.8401L45.836 67.8925ZM61.8207 45.3711L35.7606 38.4746L29.1312 63.5254L55.1913 70.4219L61.8207 45.3711Z" fill="white"/>
</svg>
