<svg width="196" height="192" viewBox="0 0 196 192" fill="none" xmlns="http://www.w3.org/2000/svg">
<path d="M17.5854 73.8597C47.6213 43.0848 96.5992 52.1818 114.188 71.6532C124.393 85.4729 121.401 99.2693 101.547 95.9247C39.9443 72.6055 22.2241 108.583 33.937 141.681C47.0416 168.623 92.0377 170.83 116.623 138.777C136.292 113.135 131.467 28.8006 131.467 0H171.941C173.332 0.348395 173.641 98.0151 160.112 133.784C136.918 195.101 57.2469 194.637 29.6462 181.746C-1.0857 163.746 -12.4506 104.635 17.5854 73.8597Z" fill="white"/>
<path d="M166.142 141.681C157.212 174.197 139.005 175.939 141.325 178.146C175.536 209.385 208.471 178.03 191.307 178.03C177.577 178.03 167.541 136.585 166.142 141.681Z" fill="white"/>
</svg>
