<svg width="364" height="190" viewBox="0 0 364 190" fill="none" xmlns="http://www.w3.org/2000/svg">
<path d="M0 70.1966V1.92319H46.9326V18.2703H18.7923V29.6172H41.7285V44.8104H18.7923V70.1966H0Z" fill="#FF4242"/>
<path d="M52.0861 15.3855V0H70.3966V15.3855H52.0861ZM52.0861 70.1966V19.6166H70.3966V70.1966H52.0861Z" fill="#FF4242"/>
<path d="M78.3118 0H96.6222V50.0992C96.6222 53.9456 98.1963 55.8688 101.344 55.8688C102.951 55.8688 104.621 55.388 106.356 54.4264L108.669 67.8887C106.484 68.9144 104.011 69.7158 101.248 70.2927C98.5497 70.8697 95.9798 71.1582 93.5384 71.1582C88.6556 71.1582 84.8971 69.9081 82.263 67.4079C79.6289 64.8437 78.3118 61.2217 78.3118 56.5419V0Z" fill="#FF4242"/>
<path d="M162.971 70.1966H144.66V41.7333C144.66 39.2331 144.082 37.4382 142.925 36.3484C141.833 35.1944 140.452 34.6175 138.781 34.6175C137.561 34.6175 136.051 35.2585 134.252 36.5407C132.517 37.8228 131.2 39.5857 130.301 41.8295V70.1966H111.99V0H130.301V27.117C132.1 24.3605 134.445 22.277 137.336 20.8666C140.291 19.3922 143.536 18.655 147.069 18.655C150.667 18.655 153.526 19.264 155.646 20.482C157.766 21.6359 159.341 23.1424 160.368 25.0015C161.396 26.8606 162.071 28.8479 162.392 30.9634C162.778 33.0789 162.971 35.0662 162.971 36.9253V70.1966Z" fill="#FF4242"/>
<path d="M195.842 71.1582C189.803 71.1582 184.727 69.9401 180.615 67.5041C176.504 65.0039 173.388 61.7666 171.267 57.792C169.147 53.8174 168.087 49.5222 168.087 44.9066C168.087 40.2268 169.147 35.8996 171.267 31.925C173.388 27.9504 176.504 24.7451 180.615 22.309C184.727 19.873 189.803 18.655 195.842 18.655C201.881 18.655 206.957 19.873 211.069 22.309C215.18 24.7451 218.296 27.9504 220.417 31.925C222.537 35.8996 223.597 40.2268 223.597 44.9066C223.597 49.5222 222.537 53.8174 220.417 57.792C218.296 61.7666 215.18 65.0039 211.069 67.5041C206.957 69.9401 201.881 71.1582 195.842 71.1582ZM186.88 44.9066C186.88 48.2401 187.715 50.9005 189.385 52.8878C191.12 54.811 193.272 55.7726 195.842 55.7726C198.476 55.7726 200.628 54.811 202.299 52.8878C203.969 50.9005 204.804 48.2401 204.804 44.9066C204.804 41.5089 203.969 38.8485 202.299 36.9253C200.628 35.0021 198.476 34.0405 195.842 34.0405C193.272 34.0405 191.12 35.0021 189.385 36.9253C187.715 38.8485 186.88 41.5089 186.88 44.9066Z" fill="#FF4242"/>
<path d="M247.098 44.8104C247.098 39.8101 248.03 35.3547 249.893 31.4442C251.821 27.4696 254.455 24.3605 257.796 22.1167C261.136 19.8089 264.959 18.655 269.264 18.655C272.54 18.655 275.56 19.4243 278.323 20.9628C281.085 22.4373 283.173 24.4887 284.587 27.117V0H302.897V50.003C302.897 51.7339 303.154 52.9519 303.668 53.6571C304.182 54.2982 305.082 54.6828 306.366 54.811V70.1966C303.218 70.8376 300.648 71.1582 298.657 71.1582C292.425 71.1582 288.827 68.8183 287.863 64.1385L287.478 62.3115C285.743 65.3886 283.398 67.6323 280.443 69.0426C277.487 70.453 274.339 71.1582 270.998 71.1582C266.373 71.1582 262.261 70.0363 258.663 67.7926C255.065 65.5488 252.238 62.4397 250.182 58.4651C248.126 54.4905 247.098 49.9389 247.098 44.8104ZM284.683 50.58V41.541C283.848 39.2973 282.531 37.5023 280.732 36.156C278.997 34.7457 277.166 34.0405 275.239 34.0405C272.605 34.0405 270.388 35.1303 268.589 37.31C266.854 39.4896 265.987 42.1179 265.987 45.195C265.987 48.3363 266.919 50.9005 268.782 52.8878C270.645 54.811 273.054 55.7726 276.01 55.7726C279.415 55.7726 282.306 54.0417 284.683 50.58Z" fill="#FF4242"/>
<path d="M310.129 54.9072C310.129 51.5095 311.06 48.5286 312.923 45.9643C314.787 43.336 317.357 41.2846 320.633 39.8101C323.974 38.3357 327.765 37.5984 332.005 37.5984C336.117 37.5984 339.522 38.2395 342.22 39.5216V37.9831C342.22 35.6111 341.513 33.8482 340.1 32.6943C338.751 31.5404 336.534 30.9634 333.45 30.9634C330.624 30.9634 327.957 31.4442 325.452 32.4058C323.01 33.3033 320.44 34.6495 317.742 36.4445L312.442 25.0977C319.123 20.8025 326.737 18.655 335.281 18.655C343.312 18.655 349.512 20.482 353.881 24.1361C358.314 27.726 360.531 33.0789 360.531 40.1947V50.003C360.531 51.7339 360.788 52.9519 361.302 53.6571C361.816 54.2982 362.715 54.6828 364 54.811V70.1966C362.522 70.5171 361.109 70.7415 359.76 70.8697C358.475 71.062 357.318 71.1582 356.29 71.1582C353.014 71.1582 350.508 70.5812 348.773 69.4273C347.103 68.2093 346.011 66.4463 345.497 64.1385L345.111 62.3115C340.486 68.2093 334.735 71.1582 327.861 71.1582C324.52 71.1582 321.5 70.453 318.802 69.0426C316.104 67.6323 313.984 65.7091 312.442 63.2731C310.9 60.7729 310.129 57.9843 310.129 54.9072ZM339.811 56.1572C341.417 55.0674 342.22 53.8815 342.22 52.5993V48.8491C341.192 48.4645 340.004 48.1439 338.654 47.8875C337.37 47.6311 336.213 47.5029 335.185 47.5029C333.001 47.5029 331.138 48.0478 329.596 49.1376C328.118 50.2274 327.379 51.6057 327.379 53.2725C327.379 54.6828 327.925 55.8367 329.017 56.7342C330.174 57.6317 331.619 58.0804 333.354 58.0804C335.731 58.0804 337.884 57.4394 339.811 56.1572Z" fill="#FF4242"/>
<path d="M1.95954 186.389V95.3583H41.2788C45.7333 95.3583 49.8451 96.2558 53.6143 98.0508C57.3835 99.8458 60.6386 102.282 63.3799 105.359C66.1211 108.351 68.2198 111.727 69.6761 115.488C71.218 119.249 71.989 123.052 71.989 126.899C71.989 132.284 70.704 137.369 68.1341 142.156C65.6499 146.943 62.1377 150.875 57.5976 153.952C53.1431 156.943 47.9177 158.439 41.9213 158.439H27.0159V186.389H1.95954ZM27.0159 136.643H40.2509C41.7928 136.643 43.2062 135.959 44.4912 134.591C45.8618 133.138 46.5471 130.574 46.5471 126.899C46.5471 123.138 45.7761 120.574 44.2342 119.206C42.6923 117.838 41.1503 117.155 39.6084 117.155H27.0159V136.643Z" fill="#FF4242"/>
<path d="M254.816 117.155H228.604V186.389H203.547V117.155H177.206V95.3583H254.816V117.155Z" fill="#FF4242"/>
<path d="M275.323 95.3583H303.335L332.375 186.389H306.933L301.408 168.568H277.122L271.725 186.389H246.155L275.323 95.3583ZM297.424 151.9L289.329 119.847L280.849 151.9H297.424Z" fill="#FF4242"/>
<path d="M127.494 82.2955C125.928 82.0243 124.604 82.1674 122.907 82.8101C121.533 83.3235 120.438 83.9679 119.232 84.9581C112.024 90.9098 108.308 104.037 111.152 113.571C111.538 114.871 112.376 116.715 113.044 117.739C115.232 121.105 118.619 122.606 122.158 121.779C125.79 120.924 129.285 117.857 132.084 113.069C132.797 111.833 134.479 107.791 134.851 106.38C136.421 100.49 136.503 95.1229 135.106 90.4775C134.753 89.3213 133.896 87.4504 133.274 86.4833C132.694 85.5886 131.457 84.2331 130.736 83.7091C130.095 83.2359 128.226 82.424 127.494 82.2955Z" fill="#FF4242"/>
<path d="M160.744 97.6224C157.863 97.0244 154.288 97.7905 150.794 99.7419C146.302 102.247 142.289 106.34 139.331 111.446C138.389 113.072 136.851 116.93 136.475 118.6C135.629 122.412 135.804 125.662 137.008 128.213C138.032 130.412 139.814 131.96 142.012 132.579C147.257 134.032 154.255 130.969 159.846 124.772C164.485 119.631 167.296 113.379 167.468 107.816C167.634 102.389 165.073 98.5093 160.744 97.6224Z" fill="#FF4242"/>
<path d="M94.5182 101.173C90.7799 100.265 87.0531 101.825 84.1547 105.523C82.4971 107.65 81.0563 110.925 80.4072 114.055C78.8837 121.339 80.5941 129.291 84.6343 133.732C86.705 136.001 89.1791 137.253 91.7222 137.296C95.4711 137.363 98.9118 134.999 101.534 130.548C102.058 129.654 103.203 126.836 103.503 125.675C105.956 116.424 103.236 106.335 97.2468 102.416C96.5408 101.954 95.2008 101.347 94.5182 101.173Z" fill="#FF4242"/>
<path d="M164.987 137.207C161.632 136.565 157.767 137.354 153.969 139.461C149.844 141.752 146.195 145.444 143.844 149.698C143.233 150.808 142.24 153.325 141.938 154.513C139.916 162.507 143.994 168.386 151.398 168.183C155.37 168.07 159.659 166.264 163.485 163.099C170.739 157.11 174.12 148.021 171.308 142.041C170.124 139.517 167.803 137.741 164.987 137.207Z" fill="#FF4242"/>
<path d="M121.742 136.25C115.65 134.882 106.194 137.517 96.4123 143.302C88.7557 147.836 82.3697 153.469 79.0471 158.632C78.2521 159.872 77.2532 162.256 77.1045 163.265C76.8775 164.837 77.09 166.02 77.8403 167.485C79.1009 169.919 81.0253 171.832 83.7794 173.382C85.2109 174.185 88.2933 175.348 90.3442 175.861C93.0927 176.536 95.4813 176.935 100.921 177.611C106.177 178.269 107.612 178.543 108.891 179.153C110.513 179.93 111.611 180.811 114.606 183.723C116.751 185.809 117.982 186.883 119.093 187.657C123.249 190.528 127.637 190.751 133.211 188.377C134.873 187.673 135.469 187.245 136.349 186.142C136.848 185.507 136.93 185.354 137.614 183.67C138.234 182.145 138.383 181.704 138.567 180.756C139.713 175.019 139.299 167.361 137.414 159.469C135.171 150.085 131.196 142.37 126.731 138.751C125.107 137.434 123.581 136.668 121.742 136.25Z" fill="#FF4242"/>
</svg>
