<svg width="450" height="732" viewBox="0 0 450 732" fill="none" xmlns="http://www.w3.org/2000/svg">
<g filter="url(#filter0_d)">
<mask id="mask0" mask-type="alpha" maskUnits="userSpaceOnUse" x="0" y="0" width="426" height="712">
<rect width="426" height="712" rx="20" fill="#1C1C1C"/>
</mask>
<g mask="url(#mask0)">
<rect width="426" height="712" rx="20" fill="#18191B" stroke="white" stroke-width="13"/>
<mask id="mask1" mask-type="alpha" maskUnits="userSpaceOnUse" x="1" y="3" width="419" height="703">
<rect x="1" y="3" width="419" height="703" rx="13" fill="#1C1C1C"/>
</mask>
<g mask="url(#mask1)">
<path d="M122.5 578.644C92.3333 585.311 39.9 612.644 -18.5 698.644L-26 695.644L-18.5 721.144C57.3333 737.811 216.8 769.344 248 762.144C279.2 754.944 386.333 739.811 436 733.144V578.644C433 537.311 428.5 378.644 325.5 428.644C303.01 439.561 275 494.144 248 542.644C226.4 581.444 172.667 572.644 122.5 578.644Z" fill="url(#paint0_linear)"/>
</g>
<path d="M326.64 613.604C325.7 614.331 325.113 615.133 324.612 616.394C324.204 617.411 324.008 618.34 323.948 619.505C323.605 626.487 328.988 635.167 335.692 638.414C336.605 638.857 338.046 639.327 338.949 639.475C341.912 639.969 344.448 638.859 345.775 636.489C347.132 634.054 347.199 630.578 345.963 626.615C345.639 625.598 344.253 622.629 343.661 621.711C341.196 617.87 338.27 615.114 334.999 613.538C334.181 613.149 332.716 612.677 331.868 612.531C331.081 612.399 329.708 612.397 329.055 612.53C328.47 612.645 327.079 613.265 326.64 613.604Z" fill="#1C1C1C"/>
<path d="M351.869 603.007C350.086 604.294 348.708 606.652 348.026 609.565C347.146 613.308 347.387 617.588 348.718 621.799C349.142 623.14 350.5 625.936 351.233 626.987C352.914 629.38 354.799 630.924 356.815 631.549C358.547 632.094 360.3 631.894 361.751 630.994C365.197 628.835 367.031 623.428 366.423 617.215C365.92 612.06 363.88 607.351 360.892 604.447C357.976 601.614 354.541 601.067 351.869 603.007Z" fill="#1C1C1C"/>
<path d="M320.455 641.326C318.07 642.929 317.054 645.773 317.637 649.239C317.977 651.228 319.061 653.676 320.464 655.615C323.723 660.135 328.98 663.207 333.471 663.222C335.769 663.226 337.708 662.494 339.013 661.113C340.939 659.079 341.367 655.988 340.228 652.293C339.998 651.553 339.017 649.498 338.527 648.746C334.65 642.72 327.703 639.125 322.518 640.449C321.906 640.605 320.896 641.037 320.455 641.326Z" fill="#1C1C1C"/>
<path d="M375.887 620.66C373.842 622.186 372.33 624.716 371.58 627.875C370.768 631.307 370.97 635.185 372.136 638.63C372.442 639.528 373.333 641.346 373.837 642.113C377.237 647.266 382.542 647.986 386.161 643.8C388.1 641.552 389.263 638.275 389.442 634.566C389.788 627.54 386.468 621.084 381.745 619.615C379.753 618.993 377.602 619.377 375.887 620.66Z" fill="#1C1C1C"/>
<path d="M353.564 644.028C349.738 646.697 346.429 653.243 344.696 661.56C343.344 668.073 343.24 674.44 344.419 678.88C344.703 679.945 345.518 681.7 346.001 682.292C346.755 683.211 347.516 683.691 348.704 684.017C350.685 684.551 352.712 684.456 354.957 683.72C356.122 683.336 358.318 682.223 359.636 681.352C361.394 680.177 362.818 679.061 365.933 676.402C368.945 673.835 369.82 673.182 370.802 672.785C372.049 672.283 373.089 672.122 376.208 671.941C378.442 671.811 379.656 671.675 380.644 671.454C384.326 670.611 386.661 668.304 388.157 664.03C388.606 662.758 388.669 662.214 388.503 661.171C388.404 660.575 388.361 660.453 387.774 659.225C387.244 658.113 387.075 657.807 386.644 657.227C384.051 653.698 379.609 650.057 374.297 647.111C367.979 643.608 361.711 641.904 357.461 642.539C355.915 642.77 354.722 643.225 353.564 644.028Z" fill="#1C1C1C"/>
</g>
</g>
<defs>
<filter id="filter0_d" x="0" y="0" width="450" height="732" filterUnits="userSpaceOnUse" color-interpolation-filters="sRGB">
<feFlood flood-opacity="0" result="BackgroundImageFix"/>
<feColorMatrix in="SourceAlpha" type="matrix" values="0 0 0 0 0 0 0 0 0 0 0 0 0 0 0 0 0 0 127 0"/>
<feOffset dx="20" dy="16"/>
<feGaussianBlur stdDeviation="2"/>
<feColorMatrix type="matrix" values="0 0 0 0 0 0 0 0 0 0 0 0 0 0 0 0 0 0 0.72 0"/>
<feBlend mode="normal" in2="BackgroundImageFix" result="effect1_dropShadow"/>
<feBlend mode="normal" in="SourceGraphic" in2="effect1_dropShadow" result="shape"/>
</filter>
<linearGradient id="paint0_linear" x1="271.5" y1="419.144" x2="-12" y2="608.144" gradientUnits="userSpaceOnUse">
<stop stop-color="#FF3737"/>
<stop offset="1" stop-color="#FF3737" stop-opacity="0"/>
</linearGradient>
</defs>
</svg>
